# xmcd CD database file
#
# Track frame offsets:
#	150
#	19705
#	48450
#	70930
#	88342
#	101962
#	126752
#	150895
#	174135
#	188277
#
# Disc length: 2708 seconds
#
# Revision: 7
# Processed by: cddbd v1.5.1PL0 Copyright (c) Steve Scherf et al.
# Submitted via: CDex 1.51
#
DISCID=740a920a
DTITLE=Chet Atkins - Sails
DYEAR=1987
DGENRE=Country
TTITLE0=Sails
TTITLE1=Why Worry
TTITLE2=Sometime, Someplace
TTITLE3=Up In My Treehouse
TTITLE4=Waltz For The Lonely
TTITLE5=Laffin' At Life
TTITLE6=On A Roll
TTITLE7=My Song
TTITLE8=Love Letter
TTITLE9=Wobegon (The Way It Used To Be)
EXTD=produced by David Hungate and Chet Atkins\n\nSAILS: Co-produced with Chet by Toito's original bassist \nDavid Hungate this album is considered one of Chet's most \nbeautiful ever. He is joined on this album once again \nby Mark Knopfler and Earl Klu
EXTD=gh. \nIncludes Knopfler's song "Why Worry", the haunting title \ntrack "Sails", and a n original Chet tune "Wobegon" \n(The Way It Used To Be) dedicated to Chet's new friend \nGarrison Keillor.\n\nThis album was a Grammy winner for Chet and Mark.. Y
EXTD=EAR: 1987
EXTT0=Sails
EXTT1=
EXTT2=
EXTT3=
EXTT4=
EXTT5=
EXTT6=
EXTT7=
EXTT8=
EXTT9=
PLAYORDER=
